<svg xmlns="http://www.w3.org/2000/svg" width="634" height="272" viewBox="0 0 634 272">
  <g id="AppBar" transform="translate(6.677 1)">
    <g id="Path_7" data-name="Path 7" transform="translate(-7.355 -2.87)" fill="#4227ff">
      <path d="M 634.1788940429688 273.370361328125 L 1.17889404296875 273.370361328125 L 1.17889404296875 2.370361328125 L 634.1788940429688 2.370361328125 L 634.1788940429688 273.370361328125 Z" stroke=""/>
      <path d="M 1.67889404296875 2.870361328125 L 1.67889404296875 272.870361328125 L 633.6788940429688 272.870361328125 L 633.6788940429688 2.870361328125 L 1.67889404296875 2.870361328125 M 0.67889404296875 1.870361328125 L 634.6788940429688 1.870361328125 L 634.6788940429688 273.870361328125 L 0.67889404296875 273.870361328125 L 0.67889404296875 1.870361328125 Z" stroke="none" fill="#4227ff"/>
    </g>
    <g id="Ellipse_2" data-name="Ellipse 2" transform="translate(364.323 38)" fill="#4227ff" stroke="#fff" stroke-width="1">
      <ellipse cx="96" cy="97" rx="96" ry="80" stroke="none"/>
      <ellipse cx="96" cy="97" rx="95.5" ry="96.5" fill="none"/>
    </g>
    <g id="Path_9" data-name="Path 9" transform="translate(33.323 53)" fill="#4227ff">
      <path d="M 80 154.5 C 69.26540374755859 154.5 58.85229873657227 152.4634857177734 49.04996109008789 148.4470062255859 C 44.33898162841797 146.5166931152344 39.79528045654297 144.1275177001953 35.54504013061523 141.3458557128906 C 31.33535957336426 138.5907135009766 27.3768196105957 135.4266815185547 23.77935981750488 131.9416656494141 C 20.18218040466309 128.4568786621094 16.91643905639648 124.6224822998047 14.07285976409912 120.5449829101563 C 11.20232009887695 116.4287796020508 8.736880302429199 112.0285186767578 6.745019912719727 107.466423034668 C 4.716519832611084 102.8203811645508 3.158600091934204 97.95841979980469 2.114520072937012 93.01561737060547 C 1.043200016021729 87.94381713867188 0.5 82.72361755371094 0.5 77.5 C 0.5 72.27638244628906 1.043200016021729 67.05618286132813 2.114520072937012 61.98437881469727 C 3.158600091934204 57.04158020019531 4.716519832611084 52.17961883544922 6.745019912719727 47.5335807800293 C 8.736880302429199 42.97148132324219 11.20232009887695 38.57122039794922 14.07285976409912 34.45502090454102 C 16.91643905639648 30.37751960754395 20.18218040466309 26.54311943054199 23.77935981750488 23.05834007263184 C 27.3768196105957 19.57332038879395 31.33535957336426 16.40928077697754 35.54504013061523 13.65414047241211 C 39.79528045654297 10.87248039245605 44.33898162841797 8.48330020904541 49.04996109008789 6.552999973297119 C 58.85229873657227 2.536520004272461 69.26540374755859 0.5 80 0.5 C 90.73459625244141 0.5 101.1476974487305 2.536520004272461 110.9500427246094 6.552999973297119 C 115.661018371582 8.48330020904541 120.204719543457 10.87248039245605 124.454963684082 13.65414047241211 C 128.6646423339844 16.40928077697754 132.6231842041016 19.57332038879395 136.2206420898438 23.05834007263184 C 139.8178253173828 26.54311943054199 143.0835571289063 30.37751960754395 145.9271392822266 34.45502090454102 C 148.7976837158203 38.57122039794922 151.2631225585938 42.97148132324219 153.2549743652344 47.5335807800293 C 155.2834777832031 52.17961883544922 156.8414001464844 57.04158020019531 157.8854827880859 61.98437881469727 C 158.9568023681641 67.05618286132813 159.5 72.27638244628906 159.5 77.5 C 159.5 82.72361755371094 158.9568023681641 87.94381713867188 157.8854827880859 93.01561737060547 C 156.8414001464844 97.95841979980469 155.2834777832031 102.8203811645508 153.2549743652344 107.466423034668 C 151.2631225585938 112.0285186767578 148.7976837158203 116.4287796020508 145.9271392822266 120.5449829101563 C 143.0835571289063 124.6224822998047 139.8178253173828 128.4568786621094 136.2206420898438 131.9416656494141 C 132.6231842041016 135.4266815185547 128.6646423339844 138.5907135009766 124.454963684082 141.3458557128906 C 120.204719543457 144.1275177001953 115.661018371582 146.5166931152344 110.9500427246094 148.4470062255859 C 101.1476974487305 152.4634857177734 90.73459625244141 154.5 80 154.5 Z" stroke="none"/>
      <path d="M 80 1 C 69.33072662353516 1 58.98141479492188 3.023956298828125 49.23954010009766 7.015670776367188 C 44.55791473388672 8.9339599609375 40.04254150390625 11.30821228027344 35.81885528564453 14.07252502441406 C 31.6356201171875 16.81033325195313 27.70199584960938 19.95443725585938 24.12724304199219 23.41746520996094 C 20.55303955078125 26.87997436523438 17.30824279785156 30.68977355957031 14.48298645019531 34.74104309082031 C 11.63121032714844 38.83029174804688 9.181961059570313 43.20162200927734 7.2032470703125 47.733642578125 C 5.18829345703125 52.34864807128906 3.640792846679688 57.17806243896484 2.603729248046875 62.08770751953125 C 1.539566040039063 67.12560272216797 1 72.31104278564453 1 77.5 C 1 82.68895721435547 1.539566040039063 87.87439727783203 2.603729248046875 92.91229248046875 C 3.640792846679688 97.82193756103516 5.18829345703125 102.6513519287109 7.2032470703125 107.266357421875 C 9.181961059570313 111.7983703613281 11.63121032714844 116.1697082519531 14.48298645019531 120.2589569091797 C 17.30824279785156 124.3102264404297 20.55303955078125 128.1200256347656 24.12724304199219 131.5825500488281 C 27.70199584960938 135.0455627441406 31.6356201171875 138.1896667480469 35.81885528564453 140.9274749755859 C 40.04254150390625 143.6917877197266 44.55791473388672 146.0660400390625 49.23954010009766 147.9843292236328 C 58.98141479492188 151.9760437011719 69.33072662353516 154 80 154 C 90.66927337646484 154 101.0185852050781 151.9760437011719 110.7604598999023 147.9843292236328 C 115.4420776367188 146.0660400390625 119.9574584960938 143.6917877197266 124.1811447143555 140.9274749755859 C 128.3643798828125 138.1896667480469 132.2980041503906 135.0455627441406 135.8727416992188 131.5825500488281 C 139.4469604492188 128.1200256347656 142.6917419433594 124.3102264404297 145.5170288085938 120.2589569091797 C 148.3687896728516 116.1697082519531 150.8180389404297 111.7983703613281 152.7967529296875 107.266357421875 C 154.8117065429688 102.6513519287109 156.3592071533203 97.82193756103516 157.3962707519531 92.91229248046875 C 158.4604339599609 87.87439727783203 159 82.68895721435547 159 77.5 C 159 72.31104278564453 158.4604339599609 67.12560272216797 157.3962707519531 62.08770751953125 C 156.3592071533203 57.17806243896484 154.8117065429688 52.34864807128906 152.7967529296875 47.733642578125 C 150.8180389404297 43.20162200927734 148.3687896728516 38.83029174804688 145.5170288085938 34.74104309082031 C 142.6917419433594 30.68977355957031 139.4469604492188 26.87997436523438 135.8727416992188 23.41746520996094 C 132.2980041503906 19.95443725585938 128.3643798828125 16.81033325195313 124.1811447143555 14.07252502441406 C 119.9574584960938 11.30821228027344 115.4420776367188 8.9339599609375 110.7604598999023 7.015670776367188 C 101.0185852050781 3.023956298828125 90.66927337646484 1 80 1 M 80 0 C 124.1827926635742 0 160 34.69793701171875 160 77.5 C 160 120.3020629882813 124.1827926635742 155 80 155 C 35.81720733642578 155 0 120.3020629882813 0 77.5 C 0 34.69793701171875 35.81720733642578 0 80 0 Z" stroke="none" fill="#fff"/>
    </g>
    <g id="Path_10" data-name="Path 10" transform="translate(145.323 151)" fill="#4227ff">
      <path d="M 53.5 108.5 C 46.34598541259766 108.5 39.40614318847656 107.07275390625 32.87324142456055 104.257926940918 C 29.73308563232422 102.9049301147461 26.70434379577637 101.2302398681641 23.87111473083496 99.28037261962891 C 21.06448554992676 97.34881591796875 18.42521476745605 95.13050079345703 16.0265998840332 92.68705749511719 C 11.15827178955078 87.72771453857422 7.336028575897217 81.95259857177734 4.66607141494751 75.52212524414063 C 1.901671409606934 68.86417388916016 0.5 61.79131317138672 0.5 54.5 C 0.5 47.20868682861328 1.901671409606934 40.13582992553711 4.66607141494751 33.47787094116211 C 7.336028575897217 27.04739952087402 11.15827178955078 21.27228546142578 16.0265998840332 16.31294250488281 C 18.42521476745605 13.86950016021729 21.06448554992676 11.65118598937988 23.87111473083496 9.71962833404541 C 26.70434379577637 7.769757270812988 29.73308563232422 6.095071315765381 32.87324142456055 4.742071628570557 C 39.40614318847656 1.927242875099182 46.34598541259766 0.5 53.5 0.5 C 60.65401458740234 0.5 67.59385681152344 1.927242875099182 74.12675476074219 4.742071628570557 C 77.26691436767578 6.095071315765381 80.295654296875 7.769757270812988 83.12888336181641 9.71962833404541 C 85.93551635742188 11.65118598937988 88.57478332519531 13.86950016021729 90.97339630126953 16.31294250488281 C 95.84172821044922 21.27228546142578 99.66397094726563 27.04739952087402 102.3339309692383 33.47787094116211 C 105.0983276367188 40.13582992553711 106.5 47.20868682861328 106.5 54.5 C 106.5 61.79131317138672 105.0983276367188 68.86417388916016 102.3339309692383 75.52212524414063 C 99.66397094726563 81.95259857177734 95.84172821044922 87.72771453857422 90.97339630126953 92.68705749511719 C 88.57478332519531 95.13050079345703 85.93551635742188 97.34881591796875 83.12888336181641 99.28037261962891 C 80.295654296875 101.2302398681641 77.26691436767578 102.9049301147461 74.12675476074219 104.257926940918 C 67.59385681152344 107.07275390625 60.65401458740234 108.5 53.5 108.5 Z" stroke="none"/>
      <path d="M 53.5 1 C 46.41441345214844 1 39.54114532470703 2.41351318359375 33.07108306884766 5.201255798339844 C 26.82001495361328 7.894660949707031 21.20547485351563 11.75101470947266 16.38341522216797 16.66321563720703 C 11.56008911132813 21.57668304443359 7.773170471191406 27.29846954345703 5.127853393554688 33.66960144042969 C 2.388816833496094 40.26647186279297 1 47.27482986450195 1 54.5 C 1 61.72517013549805 2.388816833496094 68.73352813720703 5.127853393554688 75.33039855957031 C 7.773170471191406 81.70153045654297 11.56008911132813 87.42331695556641 16.38341522216797 92.33678436279297 C 21.20547485351563 97.24898529052734 26.82001495361328 101.1053466796875 33.07108306884766 103.7987442016602 C 39.54114532470703 106.5864868164063 46.41441345214844 108 53.5 108 C 60.58558654785156 108 67.4588623046875 106.5864868164063 73.92890930175781 103.7987442016602 C 80.17998504638672 101.1053466796875 85.79452514648438 97.24898529052734 90.61658477783203 92.33678436279297 C 95.43991088867188 87.42331695556641 99.22682952880859 81.70153045654297 101.8721466064453 75.33039855957031 C 104.6111831665039 68.73352813720703 106 61.72517013549805 106 54.5 C 106 47.27482986450195 104.6111831665039 40.26647186279297 101.8721466064453 33.66960144042969 C 99.22682952880859 27.29846954345703 95.43991088867188 21.57668304443359 90.61658477783203 16.66321563720703 C 85.79452514648438 11.75101470947266 80.17998504638672 7.894660949707031 73.92890930175781 5.201255798339844 C 67.4588623046875 2.41351318359375 60.58558654785156 1 53.5 1 M 53.5 0 C 83.04722595214844 0 107 24.40048217773438 107 54.5 C 107 84.59951782226563 83.04722595214844 109 53.5 109 C 23.95277404785156 109 0 84.59951782226563 0 54.5 C 0 24.40048217773438 23.95277404785156 0 53.5 0 Z" stroke="none" fill="#fff"/>
    </g>
    <g id="Path_11" data-name="Path 11" transform="translate(145.323 185)" fill="#4227ff">
      <path d="M 60.25690460205078 74.5 L 0.7431008815765381 74.5 L 30.50000190734863 1.327292680740356 L 60.25690460205078 74.5 Z" stroke="none"/>
      <path d="M 30.50000190734863 2.654571533203125 L 1.486194610595703 74 L 59.51380920410156 74 L 30.50000190734863 2.654571533203125 M 30.50000190734863 0 L 61 75 L 3.814697265625e-06 75 L 30.50000190734863 0 Z" stroke="none" fill="#fff"/>
    </g>
    <g id="Path_8" data-name="Path 8" transform="translate(489.323 138)" fill="#4227ff">
      <path d="M 67.8372802734375 85.50000762939453 L 25.16273307800293 85.50000762939453 C 20.0048885345459 85.50000762939453 15.34884452819824 82.85500335693359 12.70781135559082 78.42462921142578 C 10.0667781829834 73.99424743652344 9.954633712768555 68.64054107666016 12.40782260894775 64.10344696044922 L 33.74509048461914 24.64097213745117 C 35.04901123046875 22.22942733764648 36.95994567871094 20.2574291229248 39.27132034301758 18.93817329406738 C 41.44983291625977 17.69476127624512 43.94946670532227 17.03751754760742 46.5 17.03751754760742 C 49.05053329467773 17.03751754760742 51.55016708374023 17.69474983215332 53.72866821289063 18.93817329406738 C 56.04004287719727 20.2574291229248 57.95097732543945 22.22942733764648 59.25490188598633 24.64097213745117 L 80.59217834472656 64.10344696044922 C 83.04536437988281 68.64054107666016 82.93321990966797 73.99424743652344 80.29219055175781 78.42462921142578 C 77.65115356445313 82.85500335693359 72.99510955810547 85.50000762939453 67.8372802734375 85.50000762939453 Z" stroke="none"/>
      <path d="M 46.5 17.53750610351563 C 44.0362434387207 17.53750610351563 41.62232208251953 18.17200469970703 39.5191764831543 19.37241363525391 C 37.28895568847656 20.64534759521484 35.44438934326172 22.54943084716797 34.18490982055664 24.8787841796875 L 12.84763336181641 64.34126281738281 C 10.47904205322266 68.72189331054688 10.58731842041016 73.8909912109375 13.13729095458984 78.16860961914063 C 15.687255859375 82.44620513916016 20.18274688720703 84.99999237060547 25.1627197265625 84.99999237060547 L 67.83726501464844 84.99999237060547 C 72.81725311279297 84.99999237060547 77.312744140625 82.44620513916016 79.86270904541016 78.16859436035156 C 82.41267395019531 73.8909912109375 82.52095794677734 68.72189331054688 80.15235900878906 64.34126281738281 L 58.81507873535156 24.8787841796875 C 57.55559921264648 22.54943084716797 55.71104431152344 20.64534759521484 53.4808235168457 19.37240600585938 C 51.37767791748047 18.17200469970703 48.9637565612793 17.53750610351563 46.5 17.53750610351563 M 46.5 16.53751373291016 C 51.67971801757813 16.53751373291016 56.85943984985352 19.15939331054688 59.69472122192383 24.40316009521484 L 81.03199768066406 63.86563873291016 C 86.43584442138672 73.85984039306641 79.1988525390625 85.99999237060547 67.83726501464844 85.99999237060547 L 25.1627197265625 85.99999237060547 C 13.8011474609375 85.99999237060547 6.564155578613281 73.85984039306641 11.96798706054688 63.86563873291016 L 33.30526733398438 24.40316009521484 C 36.14055633544922 19.15939331054688 41.32027816772461 16.53751373291016 46.5 16.53751373291016 Z" stroke="none" fill="#fff"/>
    </g>
    <text id="Math_Quiz" data-name="Math Quiz" transform="translate(219.323 79)" fill="#fff" font-size="40" font-family="Sylfaen"><tspan x="-1.557" y="40">Math Quiz</tspan></text>
  </g>
</svg>
