<svg xmlns="http://www.w3.org/2000/svg" width="528" height="480" viewBox="0 0 528 480">
  <g id="Group_3" data-name="Group 3" transform="translate(-80 -376)">
    <g id="Rectangle_2" data-name="Rectangle 2" transform="translate(80 376)" fill="red" stroke="#707070" stroke-width="1">
      <rect width="179" height="70" rx="35" stroke="none"/>
      <rect x="0.5" y="0.5" width="178" height="69" rx="34.5" fill="none"/>
    </g>
    <g id="Rectangle_3" data-name="Rectangle 3" transform="translate(410 531)" fill="#031cff" stroke="#707070" stroke-width="1">
      <rect width="179" height="70" rx="35" stroke="none"/>
      <rect x="0.5" y="0.5" width="178" height="69" rx="34.5" fill="none"/>
    </g>
    <g id="Rectangle_4" data-name="Rectangle 4" transform="translate(80 620)" fill="#ff033f" stroke="#707070" stroke-width="1">
      <rect width="179" height="70" rx="35" stroke="none"/>
      <rect x="0.5" y="0.5" width="178" height="69" rx="34.5" fill="none"/>
    </g>
    <g id="Rectangle_5" data-name="Rectangle 5" transform="translate(255 786)" fill="#8103ff" stroke="#707070" stroke-width="1">
      <rect width="179" height="70" rx="35" stroke="none"/>
      <rect x="0.5" y="0.5" width="178" height="69" rx="34.5" fill="none"/>
    </g>
    <line id="Line_1" data-name="Line 1" x2="225" y2="120" transform="translate(182.5 446.5)" fill="none" stroke="#000" stroke-width="1"/>
    <line id="Line_2" data-name="Line 2" x2="330" transform="translate(259.5 411.5)" fill="none" stroke="#000" stroke-width="1"/>
    <line id="Line_3" data-name="Line 3" x1="148" y2="89" transform="translate(259.5 566.5)" fill="none" stroke="#000" stroke-width="1"/>
    <line id="Line_4" data-name="Line 4" x2="164" y2="96" transform="translate(169.5 690.5)" fill="none" stroke="#000" stroke-width="1"/>
    <line id="Line_5" data-name="Line 5" y2="185" transform="translate(499.5 601.5)" fill="none" stroke="#000" stroke-width="1"/>
    <line id="Line_6" data-name="Line 6" x1="287" transform="translate(120.5 566.5)" fill="none" stroke="#000" stroke-width="1"/>
    <g id="Ellipse_5" data-name="Ellipse 5" transform="translate(590 403)" stroke="#000" stroke-width="1">
      <ellipse cx="9" cy="8.5" rx="9" ry="8.5" stroke="none"/>
      <ellipse cx="9" cy="8.5" rx="8.5" ry="8" fill="none"/>
    </g>
    <g id="Ellipse_6" data-name="Ellipse 6" transform="translate(491 786)" stroke="#000" stroke-width="1">
      <ellipse cx="9" cy="8.5" rx="9" ry="8.5" stroke="none"/>
      <ellipse cx="9" cy="8.5" rx="8.5" ry="8" fill="none"/>
    </g>
    <g id="Ellipse_7" data-name="Ellipse 7" transform="translate(103 558)" stroke="#000" stroke-width="1">
      <ellipse cx="9" cy="8.5" rx="9" ry="8.5" stroke="none"/>
      <ellipse cx="9" cy="8.5" rx="8.5" ry="8" fill="none"/>
    </g>
    <line id="Line_7" data-name="Line 7" x2="1" y2="120" transform="translate(499.5 411.5)" fill="none" stroke="#000" stroke-width="1"/>
    <line id="Line_8" data-name="Line 8" y2="174" transform="translate(169.5 446.5)" fill="none" stroke="#000" stroke-width="1"/>
    <text id="Start" transform="translate(170 421)" fill="#fff" font-size="20" font-family="Sylfaen"><tspan x="-19.502" y="-3">Start</tspan></text>
    <text id="Think" transform="translate(498 578)" fill="#fff" font-size="20" font-family="Sylfaen"><tspan x="-19.934" y="-3">Think</tspan></text>
    <text id="Read" transform="translate(168 665)" fill="#fff" font-size="20" font-family="Sylfaen"><tspan x="-19.238" y="-3">Read</tspan></text>
    <text id="Answer" transform="translate(344 829)" fill="#fff" font-size="20" font-family="Sylfaen"><tspan x="-27.713" y="0">Answer</tspan></text>
  </g>
</svg>
